<svg xmlns="http://www.w3.org/2000/svg" viewBox="0 0 192 192" width="192" height="192">
  <defs>
    <linearGradient id="g" x1="0" x2="1" y1="0" y2="1">
      <stop offset="0%" stop-color="#D8B76A"/>
      <stop offset="100%" stop-color="#C98863"/>
    </linearGradient>
    <radialGradient id="halo" cx="50%" cy="50%" r="50%">
      <stop offset="0%" stop-color="#2F6B4F" stop-opacity="0.45"/>
      <stop offset="100%" stop-color="#0F1F1A" stop-opacity="0"/>
    </radialGradient>
  </defs>
  <rect width="192" height="192" rx="40" fill="#0F1F1A"/>
  <circle cx="96" cy="96" r="84" fill="url(#halo)"/>
  <path d="M96 36c0 27 18 39 36 51-18 0-36 6-36 27 0 12 6 21 12 33-18-6-30-15-36-33-6 18-18 27-36 33 6-12 12-21 12-33 0-21-18-27-36-27 18-12 36-24 36-51 0 24 12 33 24 33s24-9 24-33Z" fill="url(#g)"/>
</svg>
