<svg xmlns="http://www.w3.org/2000/svg" viewBox="0 0 512 512" width="512" height="512">
  <defs>
    <linearGradient id="g" x1="0" x2="1" y1="0" y2="1">
      <stop offset="0%" stop-color="#D8B76A"/>
      <stop offset="100%" stop-color="#C98863"/>
    </linearGradient>
  </defs>
  <rect width="512" height="512" fill="#0F1F1A"/>
  <g transform="translate(128 128) scale(0.5)">
    <path d="M256 0c0 96 64 136 128 184-64 0-128 24-128 96 0 40 24 72 48 112-72-24-112-56-128-112-16 56-56 88-128 112 24-40 48-72 48-112 0-72-64-96-128-96 64-48 128-88 128-184 0 88 48 120 80 120s80-32 80-120Z" fill="url(#g)"/>
  </g>
</svg>
